<svg width="28" height="28" viewBox="0 0 28 28" fill="none" xmlns="http://www.w3.org/2000/svg">
<path d="M22.6013 8.6221L14.1473 0.189328L14.1416 0.195076L13.9514 -0.000366211L5.34766 8.58187L8.4941 11.7204L13.9572 6.27104L19.4606 11.7607L22.6013 8.6221Z" fill="#202324"/>
<path d="M22.6013 19.377L14.1473 27.8155L14.1416 27.804L13.9514 27.9995L5.34766 19.4172L8.4941 16.2786L13.9572 21.728L19.4606 16.2384L22.6013 19.377Z" fill="#202324"/>
<path d="M13.9699 10.8192L10.7549 14.0262L13.9699 17.2332L17.185 14.0262L13.9699 10.8192Z" fill="#202324"/>
<path d="M24.785 10.816L21.5699 14.0229L24.785 17.2299L28 14.0229L24.785 10.816Z" fill="#202324"/>
<path d="M3.21504 10.816L0 14.0229L3.21504 17.2299L6.43007 14.0229L3.21504 10.816Z" fill="#202324"/>
</svg>
