<svg width="28" height="29" viewBox="0 0 28 29" fill="none" xmlns="http://www.w3.org/2000/svg">
<path d="M22.6013 9.1221L14.1474 0.689328L14.1416 0.695076L13.9514 0.499634L5.34769 9.08187L8.49413 12.2204L13.9572 6.77104L19.4606 12.2607L22.6013 9.1221Z" fill="white"/>
<path d="M22.6013 19.877L14.1474 28.3155L14.1416 28.304L13.9514 28.4995L5.34769 19.9172L8.49413 16.7786L13.9572 22.228L19.4606 16.7384L22.6013 19.877Z" fill="white"/>
<path d="M13.9699 11.3192L10.7549 14.5262L13.9699 17.7332L17.1849 14.5262L13.9699 11.3192Z" fill="white"/>
<path d="M24.785 11.316L21.57 14.5229L24.785 17.7299L28.0001 14.5229L24.785 11.316Z" fill="white"/>
<path d="M3.21507 11.316L3.05176e-05 14.5229L3.21507 17.7299L6.4301 14.5229L3.21507 11.316Z" fill="white"/>
</svg>
