<svg width="34" height="34" viewBox="0 0 34 34" fill="none" xmlns="http://www.w3.org/2000/svg">
<g clip-path="url(#clip0_18_900)">
<path d="M17 0C7.59959 0 0 7.59959 0 17C0 26.4004 7.59959 34 17 34C26.4004 34 34 26.4074 34 17C34 7.59264 26.4074 0 17 0ZM18.4462 31.1076V30.3845C18.4462 29.5918 17.7926 28.9382 17 28.9382C16.2074 28.9382 15.5538 29.5918 15.5538 30.3845V31.1076C8.89284 30.4262 3.57382 25.1072 2.89939 18.4532H3.54601C4.33865 18.4532 4.99223 17.7996 4.99223 17.007C4.99223 16.2143 4.33865 15.5607 3.54601 15.5607H2.89939C3.58078 8.8998 8.8998 3.58078 15.5538 2.90634V3.54601C15.5538 4.33865 16.2074 4.99223 17 4.99223C17.7926 4.99223 18.4462 4.33865 18.4462 3.54601V2.89939C25.1072 3.58078 30.4262 8.8998 31.1006 15.5538H30.3845C29.5918 15.5538 28.9382 16.2074 28.9382 17C28.9382 17.7926 29.5918 18.4462 30.3845 18.4462H31.1076C30.4262 25.1072 25.1072 30.4262 18.4462 31.1076Z" fill="white"/>
<path d="M17 8.68427C16.2074 8.68427 15.5538 9.33784 15.5538 10.1305V16.4924L8.96933 24.5996C8.46176 25.2532 8.60777 26.1153 9.18487 26.6229C9.99141 27.2139 10.8466 26.7689 11.1387 26.4074L18.1611 17.8691C18.3072 17.6536 18.4532 17.3616 18.4532 17V10.1305C18.4462 9.33089 17.7996 8.68427 17 8.68427Z" fill="white"/>
</g>
<defs>
<clipPath id="clip0_18_900">
<rect width="34" height="34" fill="white"/>
</clipPath>
</defs>
</svg>
