<svg width="35" height="34" viewBox="0 0 35 34" fill="none" xmlns="http://www.w3.org/2000/svg">
<path d="M11.8335 18.4167L17.8227 23.208C18.4289 23.693 19.3125 23.5997 19.8041 22.9989L31.6668 8.5" stroke="white" stroke-width="3" stroke-linecap="round"/>
<path fill-rule="evenodd" clip-rule="evenodd" d="M16.3514 17.3354L22.8465 9.39711C23.3419 8.79156 23.2527 7.89903 22.647 7.40358C22.0416 6.90814 21.1491 6.99739 20.6535 7.60293L14.1747 15.5215L16.3514 17.3354ZM11.8658 22.8179L9.6891 21.0039L8.76356 22.1351L4.18335 18.7C3.55742 18.2306 2.66946 18.3574 2.20001 18.9833C1.73057 19.6093 1.85742 20.4973 2.48335 20.9666L7.06356 24.4018C8.27818 25.3128 9.995 25.1044 10.9564 23.9293L11.8658 22.8179Z" fill="white"/>
</svg>
