<svg width="16" height="25" viewBox="0 0 16 25" fill="none" xmlns="http://www.w3.org/2000/svg">
<path d="M2.89584 24.3958C2.60213 24.3859 2.31338 24.3162 2.0477 24.1908C1.78188 24.0654 1.54449 23.8872 1.35004 23.6667C0.940391 23.2566 0.710297 22.7007 0.710297 22.1208C0.710297 21.5413 0.940391 20.9851 1.35004 20.575L10.1 11.825L1.35004 3.07507C1.17702 2.65504 1.13904 2.19158 1.24142 1.74898C1.34377 1.30637 1.58139 0.906643 1.92127 0.605235C2.26117 0.303827 2.68643 0.115702 3.13822 0.066994C3.58972 0.0182856 4.0453 0.111415 4.44167 0.333402L14.65 10.5417C15.0598 10.9521 15.2899 11.508 15.2899 12.0875C15.2899 12.6673 15.0598 13.2233 14.65 13.6333L4.44167 23.6667C4.24713 23.8872 4.00972 24.0654 3.74401 24.1908C3.4783 24.3162 3.18955 24.3859 2.89584 24.3958Z" fill="#30EA52"/>
</svg>
