<svg width="34" height="34" viewBox="0 0 34 34" fill="none" xmlns="http://www.w3.org/2000/svg">
<path d="M28.645 13.5292C28.0359 12.8067 27.1575 12.3959 26.2084 12.3959H20.4992V8.50002C20.4992 6.34669 18.7567 4.60419 16.49 4.60419C15.4984 4.60419 14.6059 5.19919 14.2092 6.12002L10.6109 14.5209H7.96169C6.10585 14.5209 4.60419 16.0225 4.60419 17.8784V26.0525C4.60419 27.8942 6.12002 29.3959 7.96169 29.3959H24.3384C25.8825 29.3959 27.2 28.2909 27.4692 26.7609L29.3392 16.1359C29.495 15.2009 29.24 14.2517 28.6309 13.5292H28.645ZM7.96169 27.2709C7.28169 27.2709 6.72919 26.7184 6.72919 26.0525V17.8784C6.72919 17.1984 7.28169 16.6459 7.96169 16.6459H10.2425V27.2709H7.96169ZM25.3867 26.3925C25.3017 26.9025 24.8625 27.2709 24.3384 27.2709H12.3817V15.7959L16.1642 6.94169C16.2209 6.81419 16.3484 6.71502 16.6175 6.71502C17.595 6.71502 18.3742 7.50835 18.3742 8.48585V14.5067H26.2084C26.5342 14.5067 26.8175 14.6342 27.0159 14.875C27.2142 15.1159 27.2992 15.4275 27.2425 15.7534L25.3725 26.3784L25.3867 26.3925Z" fill="white"/>
</svg>
