<svg width="35" height="30" viewBox="0 0 35 30" fill="none" xmlns="http://www.w3.org/2000/svg">
<g clip-path="url(#clip0_3_638)">
<path fill-rule="evenodd" clip-rule="evenodd" d="M6.33807 0.147342L0.0264672 13.3556C0.00244975 13.4047 -0.00516123 13.4602 0.0047473 13.514C0.0146558 13.5677 0.041564 13.6169 0.0815369 13.6543L17.1276 29.9279C17.1761 29.9741 17.2406 30 17.3076 30C17.3747 30 17.4392 29.9741 17.4876 29.9279L34.5338 13.6553C34.5737 13.6179 34.6006 13.5687 34.6105 13.515C34.6204 13.4612 34.6128 13.4057 34.5888 13.3566L28.2772 0.148358C28.2569 0.104 28.2241 0.066422 28.1829 0.0401167C28.1416 0.0138114 28.0937 -0.000108814 28.0447 1.96624e-05H6.57262C6.52343 -0.000590114 6.4751 0.0129948 6.43348 0.0391356C6.39186 0.0652765 6.35873 0.102857 6.33807 0.147342Z" fill="#50AF95"/>
<path fill-rule="evenodd" clip-rule="evenodd" d="M19.4977 14.7119C19.3754 14.7211 18.7431 14.7587 17.3327 14.7587C16.2109 14.7587 15.4144 14.7251 15.135 14.7119C10.7998 14.5219 7.56392 13.7701 7.56392 12.8699C7.56392 11.9697 10.7998 11.2188 15.135 11.0258V13.9631C15.4185 13.9834 16.2303 14.0312 17.352 14.0312C18.6982 14.0312 19.3723 13.9753 19.4936 13.9641V11.0278C23.8197 11.2199 27.0484 11.9717 27.0484 12.8699C27.0484 13.768 23.8207 14.5199 19.4936 14.7109L19.4977 14.7119ZM19.4977 10.724V8.0956H25.535V4.0874H9.09772V8.0956H15.134V10.723C10.2277 10.9476 6.53799 11.9158 6.53799 13.0761C6.53799 14.2364 10.2277 15.2037 15.134 15.4292V23.852H19.4967V15.4262C24.3918 15.2016 28.0753 14.2344 28.0753 13.0751C28.0753 11.9158 24.3949 10.9486 19.4967 10.723L19.4977 10.724Z" fill="white"/>
</g>
<defs>
<clipPath id="clip0_3_638">
<rect width="34.6154" height="30" fill="white"/>
</clipPath>
</defs>
</svg>
