<svg width="27" height="21" viewBox="0 0 27 21" fill="none" xmlns="http://www.w3.org/2000/svg">
<g filter="url(#filter0_dd_1_47)">
<path fill-rule="evenodd" clip-rule="evenodd" d="M7.88464 0.99248C6.75861 0.965518 5.63192 0.997031 4.50915 1.08688C3.6704 1.06403 2.85919 1.38732 2.26605 1.98082C1.67293 2.57431 1.35013 3.38575 1.37355 4.22449C1.26993 4.71313 1.2375 5.21418 1.27722 5.71207L1.27722 15.1512C1.23663 15.6491 1.26844 16.1501 1.37159 16.6388C1.34869 17.4776 1.67198 18.2889 2.26547 18.882C2.85899 19.4751 3.67043 19.7979 4.50921 19.7745C5.63195 19.8646 6.75861 19.8968 7.8847 19.8708L19.2116 19.8708C20.3377 19.8979 21.4644 19.8664 22.5871 19.7765C23.4259 19.7993 24.2371 19.4761 24.8303 18.8825C25.4234 18.289 25.7462 17.4776 25.7228 16.6388C25.8264 16.1502 25.8588 15.6491 25.8191 15.1512V5.71207C25.8597 5.21424 25.8279 4.71316 25.7247 4.22446C25.7476 3.38569 25.4243 2.57445 24.8308 1.98131C24.2373 1.38816 23.4259 1.06536 22.5871 1.08878C21.4643 0.998558 20.3376 0.966411 19.2116 0.99248H7.88464ZM7.88567 2.87989H19.2127C20.6285 2.87989 21.6669 2.88556 22.3748 2.96484C22.7835 2.89086 23.2025 3.02178 23.4963 3.31529C23.7902 3.60879 23.9217 4.02761 23.8482 4.43639C23.9517 4.8531 23.9801 5.28493 23.9323 5.71164L23.9323 6.65555H20.1566C20.0872 6.65452 20.0178 6.66117 19.9499 6.67537C17.9525 6.78046 16.3868 8.43061 16.3868 10.4308C16.3868 12.4309 17.9525 14.0811 19.9499 14.1862C20.0178 14.2007 20.0871 14.2076 20.1566 14.2069H23.9323V15.1508C23.9797 15.5773 23.9509 16.0087 23.8473 16.4251C23.9213 16.8338 23.7904 17.2528 23.4969 17.5467C23.2034 17.8405 22.7845 17.972 22.3757 17.8986C21.6716 17.9779 20.6248 17.9835 19.2118 17.9835H7.88567C7.5251 17.9835 7.25513 17.9778 6.94175 17.976V2.88648C7.25513 2.88648 7.5251 2.87894 7.88567 2.87894V2.87989ZM5.05406 2.94578V17.9154C4.95494 17.9078 4.81241 17.9069 4.72368 17.8974C4.31501 17.9714 3.89603 17.8405 3.60215 17.547C3.30827 17.2535 3.17683 16.8346 3.25025 16.4259C3.14681 16.0091 3.11835 15.5773 3.1662 15.1506L3.16623 5.71145C3.11881 5.28503 3.14756 4.85354 3.25118 4.43718C3.1772 4.02848 3.30813 3.60947 3.60163 3.31559C3.89511 3.02174 4.31395 2.89027 4.72273 2.96369C4.81146 2.95332 4.95494 2.95332 5.05498 2.94483L5.05406 2.94578ZM20.1568 8.54295H23.9325V12.3186H20.1568C19.4824 12.3186 18.8592 11.9588 18.5219 11.3747C18.1847 10.7906 18.1847 10.071 18.5219 9.48687C18.8592 8.90277 19.4824 8.54295 20.1568 8.54295ZM20.1568 9.48695C19.6355 9.48695 19.2129 9.90957 19.2129 10.4309C19.2129 10.9522 19.6355 11.3748 20.1568 11.3748C20.6781 11.3748 21.1007 10.9522 21.1007 10.4309C21.1007 9.90957 20.6781 9.48695 20.1568 9.48695Z" fill="#020202"/>
</g>
<defs>
<filter id="filter0_dd_1_47" x="0.454551" y="0.446101" width="26.1872" height="20.5083" filterUnits="userSpaceOnUse" color-interpolation-filters="sRGB">
<feFlood flood-opacity="0" result="BackgroundImageFix"/>
<feColorMatrix in="SourceAlpha" type="matrix" values="0 0 0 0 0 0 0 0 0 0 0 0 0 0 0 0 0 0 127 0" result="hardAlpha"/>
<feOffset dy="0.268527"/>
<feGaussianBlur stdDeviation="0.268527"/>
<feColorMatrix type="matrix" values="0 0 0 0 0 0 0 0 0 0 0 0 0 0 0 0 0 0 0.06 0"/>
<feBlend mode="normal" in2="BackgroundImageFix" result="effect1_dropShadow_1_47"/>
<feColorMatrix in="SourceAlpha" type="matrix" values="0 0 0 0 0 0 0 0 0 0 0 0 0 0 0 0 0 0 127 0" result="hardAlpha"/>
<feOffset dy="0.268527"/>
<feGaussianBlur stdDeviation="0.40279"/>
<feColorMatrix type="matrix" values="0 0 0 0 0 0 0 0 0 0 0 0 0 0 0 0 0 0 0.1 0"/>
<feBlend mode="normal" in2="effect1_dropShadow_1_47" result="effect2_dropShadow_1_47"/>
<feBlend mode="normal" in="SourceGraphic" in2="effect2_dropShadow_1_47" result="shape"/>
</filter>
</defs>
</svg>
